<svg width="740" height="80" viewBox="0 0 740 80" fill="none" xmlns="http://www.w3.org/2000/svg">
<g clip-path="url(#clip0_11539_222620)">
<path fill-rule="evenodd" clip-rule="evenodd" d="M62.0864 23.395V25.5399H69.3332V34.0387L53.1649 46.0047V25.556H60.3955V23.4434C60.3955 23.137 60.2989 22.8306 60.1379 22.5564L59.1555 20.976L58.8979 21.234C58.5114 21.605 58.0121 21.7985 57.5129 21.7985C57.0137 21.7985 56.5145 21.605 56.128 21.2179L48.4625 13.5577C48.0921 13.1707 47.8989 12.6708 47.8989 12.1708C47.8828 11.6709 48.076 11.171 48.4625 10.7839L48.5269 10.7194L46.2563 9.21963C45.9986 9.34865 45.7087 9.42928 45.3867 9.42928H34.5487C34.1139 9.42928 33.6952 9.28414 33.3731 9.02611L31.3601 10.6549L31.489 10.7839C31.8594 11.171 32.0526 11.6709 32.0526 12.1708C32.0687 12.6708 31.8755 13.1707 31.489 13.5577L23.8235 21.234C23.437 21.605 22.9378 21.7985 22.4385 21.7985C21.9393 21.7985 21.4401 21.605 21.0536 21.2179L20.8443 21.0083L19.878 22.5403C19.7009 22.7983 19.6204 23.1209 19.6204 23.4273V25.5399H26.8349V64.9859L10.6666 52.4393V25.556H17.8811V23.3789C17.8811 22.9112 18.0261 22.4436 18.2676 22.0565L19.6687 19.8472L19.5076 19.6859C19.1372 19.2988 18.944 18.7989 18.944 18.299C18.9279 17.7991 19.1211 17.2991 19.5076 16.9121L27.1731 9.23576C27.5596 8.86484 28.0588 8.67132 28.558 8.67132C29.0573 8.67132 29.5565 8.84872 29.943 9.23576L30.2006 9.49379L32.6001 7.55858C32.584 7.52633 32.584 7.49407 32.584 7.46182V5.28471C32.584 4.20422 33.4536 3.33337 34.5326 3.33337H45.3706C46.4495 3.33337 47.3191 4.20422 47.3191 5.28471V7.46182C47.3191 7.62309 47.2869 7.78435 47.2547 7.92949L49.6703 9.52604L49.9763 9.21963C50.3628 8.84872 50.862 8.6552 51.3612 8.6552C51.8604 8.63907 52.3597 8.83259 52.7462 9.21963L60.4116 16.896C60.782 17.283 60.9753 17.7829 60.9753 18.2829C60.9914 18.7828 60.7981 19.2827 60.4116 19.6698L60.2828 19.7988L61.6838 22.0243C61.9415 22.4274 62.0864 22.9112 62.0864 23.395ZM22.664 20.0729L30.3295 12.4127C30.3939 12.3482 30.4261 12.2515 30.4422 12.1708C30.4422 12.0741 30.41 11.9934 30.3456 11.9289L28.7996 10.3808C28.7352 10.3162 28.6547 10.284 28.558 10.284C28.4614 10.284 28.3809 10.3162 28.3165 10.3808L20.651 18.0571C20.5866 18.1216 20.5544 18.2022 20.5544 18.299C20.5544 18.3957 20.5866 18.4764 20.651 18.5409L22.1809 20.0729C22.2453 20.1374 22.3258 20.1697 22.4224 20.1697C22.5191 20.1697 22.5996 20.1374 22.664 20.0729ZM45.6121 7.71985C45.6765 7.65534 45.7087 7.57471 45.7087 7.47794V5.28471C45.7087 5.18795 45.6765 5.10731 45.6121 5.04281C45.5477 4.9783 45.4672 4.94605 45.3706 4.94605H34.5326C34.436 4.94605 34.3555 4.9783 34.291 5.04281C34.2266 5.10731 34.1944 5.18795 34.1944 5.28471V7.47794C34.1944 7.57471 34.2266 7.65534 34.291 7.71985C34.3555 7.78435 34.436 7.81661 34.5326 7.81661H45.3706C45.4672 7.81661 45.5477 7.78435 45.6121 7.71985ZM57.7223 20.0891L59.2683 18.5409C59.3327 18.4603 59.3649 18.3796 59.3649 18.299C59.3649 18.2022 59.3327 18.1216 59.2683 18.0571L51.6028 10.3808C51.5384 10.3162 51.4578 10.284 51.3612 10.284C51.2646 10.284 51.1841 10.3162 51.1197 10.3808L49.5737 11.9289C49.5093 11.9934 49.4771 12.0741 49.4771 12.1708C49.4771 12.2676 49.5093 12.3482 49.5737 12.4127L57.2392 20.0891C57.3036 20.1536 57.3841 20.1858 57.4807 20.1858C57.5773 20.1858 57.6579 20.1536 57.7223 20.0891ZM53.133 55.3098L69.3175 43.4889V79H53.133V55.3098ZM10.6666 61.7282V79H26.8349V74.2587L10.6666 61.7282Z" fill="#FDD95C"/>
</g>
<path d="M134.907 32.6472V70.2955H127.676L108.702 47.4333V70.2955H100V32.6472H107.27L126.206 55.5039V32.6472H134.907Z" fill="#FDD95C"/>
<path d="M146.327 53.7283V32.6472H155.14V53.4075C155.14 60.5599 158.289 63.5304 163.618 63.5304C168.948 63.5304 172.102 60.5709 172.102 53.4185V32.6472H180.804V53.7283C180.804 64.7916 174.384 70.9372 163.568 70.9372C152.752 70.9372 146.327 64.8082 146.327 53.7283Z" fill="#FDD95C"/>
<path d="M227.13 32.6472V70.2955H219.899L200.925 47.4333V70.2955H192.223V32.6472H199.493L218.412 55.5039V32.6472H227.13Z" fill="#FDD95C"/>
<path d="M236.487 51.4714C236.487 40.1204 245.295 32 257.145 32C263.721 32 269.213 34.3675 272.803 38.6712L267.155 43.8322C265.994 42.4346 264.532 41.3118 262.875 40.5461C261.218 39.7803 259.409 39.3911 257.581 39.4069C250.462 39.4235 245.401 44.3687 245.401 51.4714C245.401 58.574 250.462 63.5303 257.581 63.5303C259.414 63.549 261.227 63.1572 262.885 62.3841C264.543 61.611 266.003 60.4767 267.155 59.0663L272.803 64.2163C269.213 68.5752 263.721 70.9372 257.089 70.9372C245.295 70.9372 236.487 62.8168 236.487 51.4714Z" fill="#FDD95C"/>
<path d="M316.362 32.6472V70.2955H307.554V54.8567H290.263V70.2955H281.455V32.6472H290.263V47.4886H307.554V32.6472H316.362Z" fill="#FDD95C"/>
<path d="M327.787 53.7283V32.6472H336.595V53.4075C336.595 60.5599 339.749 63.5193 345.073 63.5193C350.396 63.5193 353.556 60.5599 353.556 53.4075V32.6472H362.28V53.7283C362.28 64.7916 355.866 70.9372 345.045 70.9372C334.223 70.9372 327.787 64.8082 327.787 53.7283Z" fill="#FDD95C"/>
<path d="M387.541 55.5039L382.413 60.7645V70.2955H373.678V32.6472H382.413V50.2544L399.291 32.6472H409.077L393.307 49.4247L410 70.2955H399.749L387.541 55.5039Z" fill="#FDD95C"/>
<path d="M447.66 51.047C449.172 51.047 450.504 50.867 451.656 50.507C452.826 50.129 453.798 49.607 454.572 48.941C455.364 48.257 455.958 47.447 456.354 46.511C456.75 45.575 456.948 44.54 456.948 43.406C456.948 41.102 456.192 39.365 454.68 38.195C453.168 37.025 450.9 36.44 447.876 36.44H442.152V51.047H447.66ZM465.534 71H460.89C459.936 71 459.234 70.631 458.784 69.893L448.74 56.069C448.434 55.637 448.101 55.331 447.741 55.151C447.399 54.953 446.859 54.854 446.121 54.854H442.152V71H436.941V32.309H447.876C450.324 32.309 452.439 32.561 454.221 33.065C456.003 33.551 457.47 34.262 458.622 35.198C459.792 36.134 460.656 37.268 461.214 38.6C461.772 39.914 462.051 41.39 462.051 43.028C462.051 44.396 461.835 45.674 461.403 46.862C460.971 48.05 460.341 49.121 459.513 50.075C458.703 51.011 457.704 51.812 456.516 52.478C455.346 53.144 454.014 53.648 452.52 53.99C453.186 54.368 453.762 54.917 454.248 55.637L465.534 71Z" fill="#FDD95C"/>
<path d="M494.664 66.734L494.637 71H470.796V32.309H494.637V36.575H476.034V49.427H491.1V53.531H476.034V66.734H494.664Z" fill="#FDD95C"/>
<path d="M521.753 38.357C521.591 38.627 521.411 38.834 521.213 38.978C521.033 39.104 520.808 39.167 520.538 39.167C520.232 39.167 519.872 39.014 519.458 38.708C519.044 38.402 518.522 38.069 517.892 37.709C517.28 37.331 516.533 36.989 515.651 36.683C514.787 36.377 513.734 36.224 512.492 36.224C511.322 36.224 510.287 36.386 509.387 36.71C508.505 37.016 507.758 37.439 507.146 37.979C506.552 38.519 506.102 39.158 505.796 39.896C505.49 40.616 505.337 41.399 505.337 42.245C505.337 43.325 505.598 44.225 506.12 44.945C506.66 45.647 507.362 46.25 508.226 46.754C509.108 47.258 510.098 47.699 511.196 48.077C512.312 48.437 513.446 48.815 514.598 49.211C515.768 49.607 516.902 50.057 518 50.561C519.116 51.047 520.106 51.668 520.97 52.424C521.852 53.18 522.554 54.107 523.076 55.205C523.616 56.303 523.886 57.653 523.886 59.255C523.886 60.947 523.598 62.54 523.022 64.034C522.446 65.51 521.6 66.797 520.484 67.895C519.386 68.993 518.027 69.857 516.407 70.487C514.805 71.117 512.978 71.432 510.926 71.432C508.406 71.432 506.12 70.982 504.068 70.082C502.016 69.164 500.261 67.931 498.803 66.383L500.315 63.899C500.459 63.701 500.63 63.539 500.828 63.413C501.044 63.269 501.278 63.197 501.53 63.197C501.764 63.197 502.025 63.296 502.313 63.494C502.619 63.674 502.961 63.908 503.339 64.196C503.717 64.484 504.149 64.799 504.635 65.141C505.121 65.483 505.67 65.798 506.282 66.086C506.912 66.374 507.623 66.617 508.415 66.815C509.207 66.995 510.098 67.085 511.088 67.085C512.33 67.085 513.437 66.914 514.409 66.572C515.381 66.23 516.2 65.753 516.866 65.141C517.55 64.511 518.072 63.764 518.432 62.9C518.792 62.036 518.972 61.073 518.972 60.011C518.972 58.841 518.702 57.887 518.162 57.149C517.64 56.393 516.947 55.763 516.083 55.259C515.219 54.755 514.229 54.332 513.113 53.99C511.997 53.63 510.863 53.27 509.711 52.91C508.559 52.532 507.425 52.1 506.309 51.614C505.193 51.128 504.203 50.498 503.339 49.724C502.475 48.95 501.773 47.987 501.233 46.835C500.711 45.665 500.45 44.225 500.45 42.515C500.45 41.147 500.711 39.824 501.233 38.546C501.773 37.268 502.547 36.134 503.555 35.144C504.581 34.154 505.832 33.362 507.308 32.768C508.802 32.174 510.512 31.877 512.438 31.877C514.598 31.877 516.56 32.219 518.324 32.903C520.106 33.587 521.672 34.577 523.022 35.873L521.753 38.357Z" fill="#FDD95C"/>
<path d="M567.031 51.668C567.031 54.566 566.572 57.23 565.654 59.66C564.736 62.072 563.44 64.151 561.766 65.897C560.092 67.643 558.076 69.002 555.718 69.974C553.378 70.928 550.786 71.405 547.942 71.405C545.098 71.405 542.506 70.928 540.166 69.974C537.826 69.002 535.819 67.643 534.145 65.897C532.471 64.151 531.175 62.072 530.257 59.66C529.339 57.23 528.88 54.566 528.88 51.668C528.88 48.77 529.339 46.115 530.257 43.703C531.175 41.273 532.471 39.185 534.145 37.439C535.819 35.675 537.826 34.307 540.166 33.335C542.506 32.363 545.098 31.877 547.942 31.877C550.786 31.877 553.378 32.363 555.718 33.335C558.076 34.307 560.092 35.675 561.766 37.439C563.44 39.185 564.736 41.273 565.654 43.703C566.572 46.115 567.031 48.77 567.031 51.668ZM561.658 51.668C561.658 49.292 561.334 47.159 560.686 45.269C560.038 43.379 559.12 41.786 557.932 40.49C556.744 39.176 555.304 38.168 553.612 37.466C551.92 36.764 550.03 36.413 547.942 36.413C545.872 36.413 543.991 36.764 542.299 37.466C540.607 38.168 539.158 39.176 537.952 40.49C536.764 41.786 535.846 43.379 535.198 45.269C534.55 47.159 534.226 49.292 534.226 51.668C534.226 54.044 534.55 56.177 535.198 58.067C535.846 59.939 536.764 61.532 537.952 62.846C539.158 64.142 540.607 65.141 542.299 65.843C543.991 66.527 545.872 66.869 547.942 66.869C550.03 66.869 551.92 66.527 553.612 65.843C555.304 65.141 556.744 64.142 557.932 62.846C559.12 61.532 560.038 59.939 560.686 58.067C561.334 56.177 561.658 54.044 561.658 51.668Z" fill="#FDD95C"/>
<path d="M589.456 66.842C591.058 66.842 592.489 66.572 593.749 66.032C595.009 65.492 596.071 64.736 596.935 63.764C597.817 62.792 598.483 61.631 598.933 60.281C599.401 58.931 599.635 57.446 599.635 55.826V32.309H604.846V55.826C604.846 58.058 604.486 60.128 603.766 62.036C603.064 63.944 602.047 65.6 600.715 67.004C599.401 68.39 597.79 69.479 595.882 70.271C593.974 71.063 591.832 71.459 589.456 71.459C587.08 71.459 584.938 71.063 583.03 70.271C581.122 69.479 579.502 68.39 578.17 67.004C576.838 65.6 575.812 63.944 575.092 62.036C574.39 60.128 574.039 58.058 574.039 55.826V32.309H579.25V55.799C579.25 57.419 579.475 58.904 579.925 60.254C580.393 61.604 581.059 62.765 581.923 63.737C582.805 64.709 583.876 65.474 585.136 66.032C586.414 66.572 587.854 66.842 589.456 66.842Z" fill="#FDD95C"/>
<path d="M624.953 51.047C626.465 51.047 627.797 50.867 628.949 50.507C630.119 50.129 631.091 49.607 631.865 48.941C632.657 48.257 633.251 47.447 633.647 46.511C634.043 45.575 634.241 44.54 634.241 43.406C634.241 41.102 633.485 39.365 631.973 38.195C630.461 37.025 628.193 36.44 625.169 36.44H619.445V51.047H624.953ZM642.827 71H638.183C637.229 71 636.527 70.631 636.077 69.893L626.033 56.069C625.727 55.637 625.394 55.331 625.034 55.151C624.692 54.953 624.152 54.854 623.414 54.854H619.445V71H614.234V32.309H625.169C627.617 32.309 629.732 32.561 631.514 33.065C633.296 33.551 634.763 34.262 635.915 35.198C637.085 36.134 637.949 37.268 638.507 38.6C639.065 39.914 639.344 41.39 639.344 43.028C639.344 44.396 639.128 45.674 638.696 46.862C638.264 48.05 637.634 49.121 636.806 50.075C635.996 51.011 634.997 51.812 633.809 52.478C632.639 53.144 631.307 53.648 629.813 53.99C630.479 54.368 631.055 54.917 631.541 55.637L642.827 71Z" fill="#FDD95C"/>
<path d="M674.882 63.008C675.17 63.008 675.422 63.125 675.638 63.359L677.717 65.6C676.133 67.436 674.207 68.867 671.939 69.893C669.689 70.919 666.962 71.432 663.758 71.432C660.986 71.432 658.466 70.955 656.198 70.001C653.93 69.029 651.995 67.679 650.393 65.951C648.791 64.205 647.549 62.117 646.667 59.687C645.785 57.257 645.344 54.584 645.344 51.668C645.344 48.752 645.803 46.079 646.721 43.649C647.639 41.219 648.926 39.131 650.582 37.385C652.256 35.639 654.254 34.289 656.576 33.335C658.898 32.363 661.463 31.877 664.271 31.877C667.025 31.877 669.455 32.318 671.561 33.2C673.667 34.082 675.521 35.279 677.123 36.791L675.395 39.194C675.287 39.374 675.143 39.527 674.963 39.653C674.801 39.761 674.576 39.815 674.288 39.815C673.964 39.815 673.568 39.644 673.1 39.302C672.632 38.942 672.02 38.546 671.264 38.114C670.508 37.682 669.563 37.295 668.429 36.953C667.295 36.593 665.9 36.413 664.244 36.413C662.246 36.413 660.419 36.764 658.763 37.466C657.107 38.15 655.676 39.149 654.47 40.463C653.282 41.777 652.355 43.379 651.689 45.269C651.023 47.159 650.69 49.292 650.69 51.668C650.69 54.08 651.032 56.231 651.716 58.121C652.418 60.011 653.363 61.613 654.551 62.927C655.757 64.223 657.17 65.213 658.79 65.897C660.428 66.581 662.192 66.923 664.082 66.923C665.234 66.923 666.269 66.86 667.187 66.734C668.123 66.59 668.978 66.374 669.752 66.086C670.544 65.798 671.273 65.438 671.939 65.006C672.623 64.556 673.298 64.025 673.964 63.413C674.27 63.143 674.576 63.008 674.882 63.008Z" fill="#FDD95C"/>
<path d="M707.659 66.734L707.632 71H683.791V32.309H707.632V36.575H689.029V49.427H704.095V53.531H689.029V66.734H707.659Z" fill="#FDD95C"/>
<path d="M734.748 38.357C734.586 38.627 734.406 38.834 734.208 38.978C734.028 39.104 733.803 39.167 733.533 39.167C733.227 39.167 732.867 39.014 732.453 38.708C732.039 38.402 731.517 38.069 730.887 37.709C730.275 37.331 729.528 36.989 728.646 36.683C727.782 36.377 726.729 36.224 725.487 36.224C724.317 36.224 723.282 36.386 722.382 36.71C721.5 37.016 720.753 37.439 720.141 37.979C719.547 38.519 719.097 39.158 718.791 39.896C718.485 40.616 718.332 41.399 718.332 42.245C718.332 43.325 718.593 44.225 719.115 44.945C719.655 45.647 720.357 46.25 721.221 46.754C722.103 47.258 723.093 47.699 724.191 48.077C725.307 48.437 726.441 48.815 727.593 49.211C728.763 49.607 729.897 50.057 730.995 50.561C732.111 51.047 733.101 51.668 733.965 52.424C734.847 53.18 735.549 54.107 736.071 55.205C736.611 56.303 736.881 57.653 736.881 59.255C736.881 60.947 736.593 62.54 736.017 64.034C735.441 65.51 734.595 66.797 733.479 67.895C732.381 68.993 731.022 69.857 729.402 70.487C727.8 71.117 725.973 71.432 723.921 71.432C721.401 71.432 719.115 70.982 717.063 70.082C715.011 69.164 713.256 67.931 711.798 66.383L713.31 63.899C713.454 63.701 713.625 63.539 713.823 63.413C714.039 63.269 714.273 63.197 714.525 63.197C714.759 63.197 715.02 63.296 715.308 63.494C715.614 63.674 715.956 63.908 716.334 64.196C716.712 64.484 717.144 64.799 717.63 65.141C718.116 65.483 718.665 65.798 719.277 66.086C719.907 66.374 720.618 66.617 721.41 66.815C722.202 66.995 723.093 67.085 724.083 67.085C725.325 67.085 726.432 66.914 727.404 66.572C728.376 66.23 729.195 65.753 729.861 65.141C730.545 64.511 731.067 63.764 731.427 62.9C731.787 62.036 731.967 61.073 731.967 60.011C731.967 58.841 731.697 57.887 731.157 57.149C730.635 56.393 729.942 55.763 729.078 55.259C728.214 54.755 727.224 54.332 726.108 53.99C724.992 53.63 723.858 53.27 722.706 52.91C721.554 52.532 720.42 52.1 719.304 51.614C718.188 51.128 717.198 50.498 716.334 49.724C715.47 48.95 714.768 47.987 714.228 46.835C713.706 45.665 713.445 44.225 713.445 42.515C713.445 41.147 713.706 39.824 714.228 38.546C714.768 37.268 715.542 36.134 716.55 35.144C717.576 34.154 718.827 33.362 720.303 32.768C721.797 32.174 723.507 31.877 725.433 31.877C727.593 31.877 729.555 32.219 731.319 32.903C733.101 33.587 734.667 34.577 736.017 35.873L734.748 38.357Z" fill="#FDD95C"/>
<defs>
<clipPath id="clip0_11539_222620">
<rect width="73.3333" height="73.3333" fill="white" transform="translate(3.33325 3.33337)"/>
</clipPath>
</defs>
</svg>
