<svg fill="none" height="80" viewBox="0 0 489 80" width="489" xmlns="http://www.w3.org/2000/svg" xmlns:xlink="http://www.w3.org/1999/xlink"><clipPath id="a"><path d="m3.33325 3.33337h73.3333v73.3333h-73.3333z"/></clipPath><g clip-path="url(#a)"><path clip-rule="evenodd" d="m62.0865 23.395v2.1449h7.2468v8.4988l-16.1684 11.966v-20.4487h7.2307v-2.1126c0-.3064-.0966-.6128-.2577-.887l-.9823-1.5804-.2577.258c-.3865.371-.8857.5645-1.3849.5645s-.9985-.1935-1.3849-.5806l-7.6655-7.6602c-.3704-.387-.5637-.8869-.5637-1.3869-.0161-.4999.1772-.9998.5637-1.3869l.0644-.0645-2.2707-1.49977c-.2576.12902-.5475.20965-.8696.20965h-10.8379c-.4348 0-.8535-.14514-1.1756-.40317l-2.013 1.62879.1288.129c.3704.3871.5637.887.5637 1.3869.0161.5-.1772.9999-.5637 1.3869l-7.6655 7.6763c-.3864.371-.8857.5645-1.3849.5645s-.9984-.1935-1.3849-.5806l-.2094-.2096-.9662 1.532c-.1772.258-.2577.5806-.2577.887v2.1126h7.2146v39.446l-16.1684-12.5466v-26.8833h7.2146v-2.1771c0-.4677.1449-.9353.3865-1.3224l1.401-2.2093-.161-.1613c-.3704-.3871-.5636-.887-.5636-1.3869-.0162-.4999.1771-.9999.5636-1.3869l7.6655-7.67634c.3865-.37092.8857-.56444 1.3849-.56444s.9984.1774 1.3849.56444l.2577.25803 2.3995-1.93521c-.0161-.03225-.0161-.06451-.0161-.09676v-2.17711c0-1.08049.8696-1.95134 1.9486-1.95134h10.8379c1.079 0 1.9486.87085 1.9486 1.95134v2.17711c0 .16127-.0322.32253-.0644.46767l2.4156 1.59655.3059-.30641c.3865-.37091.8858-.56443 1.385-.56443.4992-.01613.9984.17739 1.3849.56443l7.6655 7.67637c.3704.387.5636.8869.5636 1.3869.0161.4999-.1771.9998-.5636 1.3869l-.1288.129 1.401 2.2255c.2577.4031.4026.8869.4026 1.3707zm-39.4224-3.3221 7.6654-7.6602c.0645-.0645.0967-.1612.1128-.2419 0-.0967-.0322-.1774-.0967-.2419l-1.5459-1.5481c-.0645-.0646-.145-.0968-.2416-.0968s-.1771.0322-.2416.0968l-7.6654 7.6763c-.0644.0645-.0967.1451-.0967.2419 0 .0967.0323.1774.0967.2419l1.5298 1.532c.0645.0645.145.0968.2416.0968s.1771-.0323.2416-.0968zm22.9481-12.35305c.0644-.06451.0966-.14514.0966-.24191v-2.19323c0-.09676-.0322-.1774-.0966-.2419-.0644-.06451-.145-.09676-.2416-.09676h-10.8379c-.0967 0-.1772.03225-.2416.09676-.0644.0645-.0966.14514-.0966.2419v2.19323c0 .09677.0322.1774.0966.24191.0644.0645.1449.09676.2416.09676h10.8379c.0966 0 .1772-.03226.2416-.09676zm12.1101 12.36925 1.546-1.5482c.0644-.0806.0966-.1613.0966-.2419 0-.0968-.0322-.1774-.0966-.2419l-7.6655-7.6763c-.0644-.0646-.1449-.0968-.2415-.0968s-.1772.0322-.2416.0968l-1.546 1.5481c-.0644.0645-.0966.1452-.0966.2419 0 .0968.0322.1774.0966.2419l7.6655 7.6764c.0644.0645.145.0967.2416.0967s.1771-.0322.2415-.0967zm-4.5892 35.2207 16.1844-11.8209v35.5111h-16.1844zm-42.4665 6.4184v17.2718h16.1684v-4.7413z" fill="#031f2b" fill-rule="evenodd"/></g><g fill="#000"><path d="m111.768 50.912c1.476 0 2.772-.18 3.888-.54 1.134-.36 2.079-.864 2.835-1.512.756-.666 1.323-1.449 1.701-2.349.378-.918.567-1.926.567-3.024 0-2.232-.738-3.915-2.214-5.049-1.458-1.134-3.654-1.701-6.588-1.701h-5.427v14.175zm18.09 20.088h-5.13c-1.026 0-1.773-.405-2.241-1.215l-9.585-13.446c-.306-.45-.639-.765-.999-.945-.36-.198-.9-.297-1.62-.297h-3.753v15.903h-5.751v-38.772h11.178c2.502 0 4.653.261 6.453.783 1.818.504 3.312 1.233 4.482 2.187 1.188.936 2.061 2.07 2.619 3.402.576 1.332.864 2.826.864 4.482 0 1.35-.207 2.619-.621 3.807s-1.026 2.259-1.836 3.213c-.792.936-1.764 1.746-2.916 2.43s-2.457 1.206-3.915 1.566c.72.432 1.341 1.035 1.863 1.809z"/><path d="m150.143 54.233c0-1.044-.153-2.007-.459-2.889-.288-.882-.72-1.647-1.296-2.295s-1.278-1.152-2.106-1.512-1.782-.54-2.862-.54c-2.214 0-3.96.639-5.238 1.917-1.26 1.278-2.061 3.051-2.403 5.319zm4.347 12.852c-.648.756-1.395 1.413-2.241 1.971-.846.54-1.746.981-2.7 1.323s-1.944.594-2.97.756c-1.008.162-2.007.243-2.997.243-1.89 0-3.645-.315-5.265-.945-1.602-.648-2.997-1.584-4.185-2.808-1.17-1.242-2.088-2.772-2.754-4.59-.648-1.836-.972-3.942-.972-6.318 0-1.908.297-3.681.891-5.319.594-1.656 1.44-3.096 2.538-4.32 1.116-1.224 2.475-2.187 4.077-2.889s3.402-1.053 5.4-1.053c1.674 0 3.213.279 4.617.837 1.422.54 2.646 1.332 3.672 2.376s1.827 2.331 2.403 3.861c.594 1.53.891 3.276.891 5.238 0 .81-.09 1.359-.27 1.647-.18.27-.513.405-.999.405h-17.982c.054 1.638.288 3.069.702 4.293.414 1.206.981 2.214 1.701 3.024.738.81 1.611 1.413 2.619 1.809s2.133.594 3.375.594c1.17 0 2.178-.135 3.024-.405.864-.27 1.602-.558 2.214-.864.63-.324 1.152-.621 1.566-.891.432-.27.81-.405 1.134-.405.432 0 .765.162.999.486z"/><path d="m176.728 48.293c-.144.234-.297.405-.459.513-.162.09-.369.135-.621.135-.288 0-.612-.099-.972-.297-.342-.198-.765-.414-1.269-.648-.486-.234-1.062-.45-1.728-.648s-1.458-.297-2.376-.297c-.756 0-1.449.099-2.079.297-.612.18-1.134.441-1.566.783-.432.324-.765.72-.999 1.188-.234.45-.351.936-.351 1.458 0 .684.198 1.251.594 1.701.414.45.945.837 1.593 1.161.666.324 1.413.621 2.241.891.846.252 1.701.522 2.565.81.882.288 1.737.621 2.565.999.846.36 1.593.819 2.241 1.377.666.54 1.197 1.197 1.593 1.971.414.774.621 1.719.621 2.835 0 1.278-.234 2.466-.702 3.564-.45 1.08-1.125 2.016-2.025 2.808-.882.792-1.98 1.413-3.294 1.863s-2.817.675-4.509.675c-1.89 0-3.636-.315-5.238-.945s-2.943-1.431-4.023-2.403l1.242-2.025c.144-.252.324-.441.54-.567.216-.144.504-.216.864-.216.342 0 .693.126 1.053.378s.792.531 1.296.837c.504.288 1.116.558 1.836.81.72.234 1.62.351 2.7.351.9 0 1.683-.108 2.349-.324.666-.234 1.215-.54 1.647-.918.45-.396.783-.846.999-1.35s.324-1.035.324-1.593c0-.72-.207-1.314-.621-1.782-.396-.486-.927-.9-1.593-1.242-.648-.342-1.395-.639-2.241-.891s-1.71-.522-2.592-.81-1.746-.621-2.592-.999-1.602-.855-2.268-1.431c-.648-.576-1.179-1.278-1.593-2.106-.396-.828-.594-1.836-.594-3.024 0-1.062.216-2.079.648-3.051.45-.972 1.089-1.827 1.917-2.565.846-.738 1.881-1.323 3.105-1.755 1.242-.45 2.655-.675 4.239-.675 1.818 0 3.456.288 4.914.864 1.476.576 2.736 1.368 3.78 2.376z"/><path d="m195.712 43.136c2.016 0 3.834.333 5.454.999 1.638.648 3.024 1.593 4.158 2.835 1.152 1.224 2.034 2.709 2.646 4.455.612 1.728.918 3.672.918 5.832s-.306 4.113-.918 5.859-1.494 3.231-2.646 4.455c-1.134 1.224-2.52 2.169-4.158 2.835-1.62.648-3.438.972-5.454.972-2.034 0-3.87-.324-5.508-.972-1.62-.666-3.006-1.611-4.158-2.835s-2.043-2.709-2.673-4.455c-.612-1.746-.918-3.699-.918-5.859s.306-4.104.918-5.832c.63-1.746 1.521-3.231 2.673-4.455 1.152-1.242 2.538-2.187 4.158-2.835 1.638-.666 3.474-.999 5.508-.999zm0 24.138c2.592 0 4.527-.873 5.805-2.619s1.917-4.203 1.917-7.371-.639-5.625-1.917-7.371c-1.278-1.764-3.213-2.646-5.805-2.646-2.628 0-4.59.882-5.886 2.646-1.278 1.746-1.917 4.203-1.917 7.371s.639 5.625 1.917 7.371c1.296 1.746 3.258 2.619 5.886 2.619z"/><path d="m237.58 43.568v27.432h-3.159c-.72 0-1.188-.351-1.404-1.053l-.378-2.754c-.594.63-1.215 1.206-1.863 1.728s-1.341.972-2.079 1.35c-.738.36-1.521.639-2.349.837-.828.216-1.719.324-2.673.324-1.512 0-2.844-.252-3.996-.756-1.134-.504-2.088-1.206-2.862-2.106-.774-.918-1.359-2.016-1.755-3.294s-.594-2.691-.594-4.239v-17.469h5.292v17.469c0 1.962.45 3.492 1.35 4.59.9 1.08 2.277 1.62 4.131 1.62 1.35 0 2.61-.315 3.78-.945 1.17-.648 2.268-1.53 3.294-2.646v-20.088z"/><path d="m249.898 48.833c.882-1.8 1.944-3.213 3.186-4.239s2.736-1.539 4.482-1.539c.594 0 1.152.072 1.674.216.54.126 1.008.324 1.404.594l-.351 3.969c-.126.486-.423.729-.891.729-.252 0-.63-.045-1.134-.135-.504-.108-1.044-.162-1.62-.162-.846 0-1.593.126-2.241.378-.648.234-1.233.594-1.755 1.08-.504.468-.954 1.053-1.35 1.755-.396.684-.765 1.467-1.107 2.349v17.172h-5.265v-27.432h3.024c.576 0 .963.108 1.161.324.216.198.369.558.459 1.08z"/><path d="m282.927 48.698c-.162.198-.324.36-.486.486-.144.108-.36.162-.648.162s-.594-.108-.918-.324c-.306-.234-.702-.477-1.188-.729-.468-.27-1.044-.513-1.728-.729-.666-.234-1.494-.351-2.484-.351-1.296 0-2.439.234-3.429.702s-1.818 1.134-2.484 1.998c-.648.864-1.143 1.917-1.485 3.159s-.513 2.637-.513 4.185c0 1.602.18 3.033.54 4.293.36 1.242.873 2.295 1.539 3.159.666.846 1.476 1.494 2.43 1.944.954.432 2.016.648 3.186.648 1.134 0 2.07-.135 2.808-.405.738-.288 1.35-.594 1.836-.918s.891-.621 1.215-.891c.324-.288.657-.432.999-.432.432 0 .765.162.999.486l1.512 1.944c-.63.774-1.341 1.431-2.133 1.971-.774.54-1.602.981-2.484 1.323s-1.809.594-2.781.756c-.954.162-1.926.243-2.916.243-1.71 0-3.312-.315-4.806-.945-1.476-.63-2.763-1.548-3.861-2.754-1.08-1.206-1.935-2.682-2.565-4.428-.63-1.764-.945-3.762-.945-5.994 0-2.034.279-3.915.837-5.643.576-1.728 1.413-3.213 2.511-4.455 1.116-1.26 2.484-2.241 4.104-2.943 1.62-.72 3.474-1.08 5.562-1.08 1.962 0 3.69.315 5.184.945s2.826 1.521 3.996 2.673z"/><path d="m307.239 54.233c0-1.044-.153-2.007-.459-2.889-.288-.882-.72-1.647-1.296-2.295s-1.278-1.152-2.106-1.512-1.782-.54-2.862-.54c-2.214 0-3.96.639-5.238 1.917-1.26 1.278-2.061 3.051-2.403 5.319zm4.347 12.852c-.648.756-1.395 1.413-2.241 1.971-.846.54-1.746.981-2.7 1.323s-1.944.594-2.97.756c-1.008.162-2.007.243-2.997.243-1.89 0-3.645-.315-5.265-.945-1.602-.648-2.997-1.584-4.185-2.808-1.17-1.242-2.088-2.772-2.754-4.59-.648-1.836-.972-3.942-.972-6.318 0-1.908.297-3.681.891-5.319.594-1.656 1.44-3.096 2.538-4.32 1.116-1.224 2.475-2.187 4.077-2.889s3.402-1.053 5.4-1.053c1.674 0 3.213.279 4.617.837 1.422.54 2.646 1.332 3.672 2.376s1.827 2.331 2.403 3.861c.594 1.53.891 3.276.891 5.238 0 .81-.09 1.359-.27 1.647-.18.27-.513.405-.999.405h-17.982c.054 1.638.288 3.069.702 4.293.414 1.206.981 2.214 1.701 3.024.738.81 1.611 1.413 2.619 1.809s2.133.594 3.375.594c1.17 0 2.178-.135 3.024-.405.864-.27 1.602-.558 2.214-.864.63-.324 1.152-.621 1.566-.891.432-.27.81-.405 1.134-.405.432 0 .765.162.999.486z"/><path d="m359.469 62.684c.324 0 .603.126.837.378l2.268 2.484c-1.584 1.872-3.519 3.321-5.805 4.347-2.268 1.026-5.004 1.539-8.208 1.539-2.808 0-5.355-.486-7.641-1.458-2.268-.972-4.212-2.331-5.832-4.077-1.602-1.746-2.844-3.834-3.726-6.264s-1.323-5.103-1.323-8.019.459-5.589 1.377-8.019c.936-2.43 2.241-4.518 3.915-6.264s3.672-3.105 5.994-4.077c2.34-.972 4.923-1.458 7.749-1.458 2.754 0 5.202.45 7.344 1.35s4.005 2.097 5.589 3.591l-1.89 2.673c-.126.198-.288.36-.486.486-.18.126-.423.189-.729.189-.342 0-.747-.171-1.215-.513-.45-.342-1.053-.72-1.809-1.134-.738-.432-1.656-.819-2.754-1.161s-2.466-.513-4.104-.513c-1.926 0-3.69.342-5.292 1.026-1.602.666-2.988 1.638-4.158 2.916-1.152 1.26-2.052 2.817-2.7 4.671-.63 1.836-.945 3.915-.945 6.237 0 2.358.333 4.455.999 6.291s1.584 3.393 2.754 4.671 2.547 2.25 4.131 2.916 3.294.999 5.13.999c1.116 0 2.115-.063 2.997-.189.9-.144 1.719-.351 2.457-.621.756-.27 1.467-.612 2.133-1.026.666-.432 1.323-.945 1.971-1.539.144-.126.297-.225.459-.297.162-.09.333-.135.513-.135z"/><path d="m384.917 54.233c0-1.044-.153-2.007-.459-2.889-.288-.882-.72-1.647-1.296-2.295s-1.278-1.152-2.106-1.512-1.782-.54-2.862-.54c-2.214 0-3.96.639-5.238 1.917-1.26 1.278-2.061 3.051-2.403 5.319zm4.347 12.852c-.648.756-1.395 1.413-2.241 1.971-.846.54-1.746.981-2.7 1.323s-1.944.594-2.97.756c-1.008.162-2.007.243-2.997.243-1.89 0-3.645-.315-5.265-.945-1.602-.648-2.997-1.584-4.185-2.808-1.17-1.242-2.088-2.772-2.754-4.59-.648-1.836-.972-3.942-.972-6.318 0-1.908.297-3.681.891-5.319.594-1.656 1.44-3.096 2.538-4.32 1.116-1.224 2.475-2.187 4.077-2.889s3.402-1.053 5.4-1.053c1.674 0 3.213.279 4.617.837 1.422.54 2.646 1.332 3.672 2.376s1.827 2.331 2.403 3.861c.594 1.53.891 3.276.891 5.238 0 .81-.09 1.359-.27 1.647-.18.27-.513.405-.999.405h-17.982c.054 1.638.288 3.069.702 4.293.414 1.206.981 2.214 1.701 3.024.738.81 1.611 1.413 2.619 1.809s2.133.594 3.375.594c1.17 0 2.178-.135 3.024-.405.864-.27 1.602-.558 2.214-.864.63-.324 1.152-.621 1.566-.891.432-.27.81-.405 1.134-.405.432 0 .765.162.999.486z"/><path d="m400.269 47.375c.594-.63 1.215-1.206 1.863-1.728s1.332-.963 2.052-1.323c.738-.378 1.521-.666 2.349-.864.846-.216 1.746-.324 2.7-.324 1.512 0 2.835.252 3.969.756 1.152.504 2.115 1.215 2.889 2.133.774.9 1.359 1.989 1.755 3.267s.594 2.691.594 4.239v17.469h-5.292v-17.469c0-1.962-.45-3.483-1.35-4.563-.9-1.098-2.277-1.647-4.131-1.647-1.35 0-2.619.324-3.807.972-1.17.63-2.259 1.494-3.267 2.592v20.115h-5.265v-27.432h3.159c.738 0 1.197.351 1.377 1.053z"/><path d="m433.762 71.432c-2.214 0-3.924-.621-5.13-1.863-1.188-1.242-1.782-3.015-1.782-5.319v-16.416h-3.186c-.306 0-.567-.09-.783-.27-.198-.198-.297-.486-.297-.864v-2.133l4.455-.621 1.188-8.181c.072-.306.207-.54.405-.702.216-.18.486-.27.81-.27h2.673v9.207h7.776v3.834h-7.776v16.065c0 1.08.261 1.89.783 2.43.54.522 1.224.783 2.052.783.486 0 .9-.063 1.242-.189.36-.126.666-.261.918-.405.252-.162.468-.306.648-.432s.342-.189.486-.189c.18 0 .315.045.405.135.108.072.216.198.324.378l1.566 2.538c-.864.792-1.89 1.404-3.078 1.836s-2.421.648-3.699.648z"/><path d="m462.753 54.233c0-1.044-.153-2.007-.459-2.889-.288-.882-.72-1.647-1.296-2.295s-1.278-1.152-2.106-1.512-1.782-.54-2.862-.54c-2.214 0-3.96.639-5.238 1.917-1.26 1.278-2.061 3.051-2.403 5.319zm4.347 12.852c-.648.756-1.395 1.413-2.241 1.971-.846.54-1.746.981-2.7 1.323s-1.944.594-2.97.756c-1.008.162-2.007.243-2.997.243-1.89 0-3.645-.315-5.265-.945-1.602-.648-2.997-1.584-4.185-2.808-1.17-1.242-2.088-2.772-2.754-4.59-.648-1.836-.972-3.942-.972-6.318 0-1.908.297-3.681.891-5.319.594-1.656 1.44-3.096 2.538-4.32 1.116-1.224 2.475-2.187 4.077-2.889s3.402-1.053 5.4-1.053c1.674 0 3.213.279 4.617.837 1.422.54 2.646 1.332 3.672 2.376s1.827 2.331 2.403 3.861c.594 1.53.891 3.276.891 5.238 0 .81-.09 1.359-.27 1.647-.18.27-.513.405-.999.405h-17.982c.054 1.638.288 3.069.702 4.293.414 1.206.981 2.214 1.701 3.024.738.81 1.611 1.413 2.619 1.809s2.133.594 3.375.594c1.17 0 2.178-.135 3.024-.405.864-.27 1.602-.558 2.214-.864.63-.324 1.152-.621 1.566-.891.432-.27.81-.405 1.134-.405.432 0 .765.162.999.486z"/><path d="m478.132 48.833c.882-1.8 1.944-3.213 3.186-4.239s2.736-1.539 4.482-1.539c.594 0 1.152.072 1.674.216.54.126 1.008.324 1.404.594l-.351 3.969c-.126.486-.423.729-.891.729-.252 0-.63-.045-1.134-.135-.504-.108-1.044-.162-1.62-.162-.846 0-1.593.126-2.241.378-.648.234-1.233.594-1.755 1.08-.504.468-.954 1.053-1.35 1.755-.396.684-.765 1.467-1.107 2.349v17.172h-5.265v-27.432h3.024c.576 0 .963.108 1.161.324.216.198.369.558.459 1.08z"/></g></svg>