<?xml version="1.0" encoding="utf-8"?>
<!-- Generator: Adobe Illustrator 26.0.3, SVG Export Plug-In . SVG Version: 6.00 Build 0)  -->
<svg version="1.1" id="Layer_1" xmlns="http://www.w3.org/2000/svg" xmlns:xlink="http://www.w3.org/1999/xlink" x="0px" y="0px"
	 viewBox="0 0 740 80" style="enable-background:new 0 0 740 80;" xml:space="preserve">
<style type="text/css">
	.st0{clip-path:url(#SVGID_00000058561921785238452240000011064316029619148208_);}
	.st1{fill-rule:evenodd;clip-rule:evenodd;fill:#FDD95C;}
	.st2{fill:#FDD95C;}
</style>
<g>
	<defs>
		<rect id="SVGID_1_" x="3.3" y="3.3" width="73.3" height="73.3"/>
	</defs>
	<clipPath id="SVGID_00000123430276753613920480000017430331431735610284_">
		<use xlink:href="#SVGID_1_"  style="overflow:visible;"/>
	</clipPath>
	<g style="clip-path:url(#SVGID_00000123430276753613920480000017430331431735610284_);">
		<path class="st1" d="M62.1,23.4v2.1h7.2V34L53.2,46V25.6h7.2v-2.1c0-0.3-0.1-0.6-0.3-0.9l-1-1.6l-0.3,0.3
			c-0.4,0.4-0.9,0.6-1.4,0.6c-0.5,0-1-0.2-1.4-0.6l-7.7-7.7c-0.4-0.4-0.6-0.9-0.6-1.4c0-0.5,0.2-1,0.6-1.4l0.1-0.1l-2.3-1.5
			c-0.3,0.1-0.5,0.2-0.9,0.2H34.5c-0.4,0-0.9-0.1-1.2-0.4l-2,1.6l0.1,0.1c0.4,0.4,0.6,0.9,0.6,1.4c0,0.5-0.2,1-0.6,1.4l-7.7,7.7
			c-0.4,0.4-0.9,0.6-1.4,0.6c-0.5,0-1-0.2-1.4-0.6L20.8,21l-1,1.5c-0.2,0.3-0.3,0.6-0.3,0.9v2.1h7.2V65L10.7,52.4V25.6h7.2v-2.2
			c0-0.5,0.1-0.9,0.4-1.3l1.4-2.2l-0.2-0.2c-0.4-0.4-0.6-0.9-0.6-1.4c0-0.5,0.2-1,0.6-1.4l7.7-7.7c0.4-0.4,0.9-0.6,1.4-0.6
			c0.5,0,1,0.2,1.4,0.6l0.3,0.3l2.4-1.9c0,0,0-0.1,0-0.1V5.3c0-1.1,0.9-2,1.9-2h10.8c1.1,0,1.9,0.9,1.9,2v2.2c0,0.2,0,0.3-0.1,0.5
			l2.4,1.6L50,9.2c0.4-0.4,0.9-0.6,1.4-0.6c0.5,0,1,0.2,1.4,0.6l7.7,7.7c0.4,0.4,0.6,0.9,0.6,1.4c0,0.5-0.2,1-0.6,1.4l-0.1,0.1
			l1.4,2.2C61.9,22.4,62.1,22.9,62.1,23.4z M22.7,20.1l7.7-7.7c0.1-0.1,0.1-0.2,0.1-0.2c0-0.1,0-0.2-0.1-0.2l-1.5-1.5
			c-0.1-0.1-0.1-0.1-0.2-0.1c-0.1,0-0.2,0-0.2,0.1l-7.7,7.7c-0.1,0.1-0.1,0.1-0.1,0.2c0,0.1,0,0.2,0.1,0.2l1.5,1.5
			c0.1,0.1,0.1,0.1,0.2,0.1C22.5,20.2,22.6,20.1,22.7,20.1z M45.6,7.7c0.1-0.1,0.1-0.1,0.1-0.2V5.3c0-0.1,0-0.2-0.1-0.2
			c-0.1-0.1-0.1-0.1-0.2-0.1H34.5c-0.1,0-0.2,0-0.2,0.1c-0.1,0.1-0.1,0.1-0.1,0.2v2.2c0,0.1,0,0.2,0.1,0.2c0.1,0.1,0.1,0.1,0.2,0.1
			h10.8C45.5,7.8,45.5,7.8,45.6,7.7z M57.7,20.1l1.5-1.5c0.1-0.1,0.1-0.2,0.1-0.2c0-0.1,0-0.2-0.1-0.2l-7.7-7.7
			c-0.1-0.1-0.1-0.1-0.2-0.1c-0.1,0-0.2,0-0.2,0.1l-1.5,1.5c-0.1,0.1-0.1,0.1-0.1,0.2c0,0.1,0,0.2,0.1,0.2l7.7,7.7
			c0.1,0.1,0.1,0.1,0.2,0.1S57.7,20.2,57.7,20.1z M53.1,55.3l16.2-11.8V79H53.1V55.3z M10.7,61.7V79h16.2v-4.7L10.7,61.7z"/>
	</g>
</g>
<path class="st2" d="M134.9,32.6v37.6h-7.2l-19-22.9v22.9H100V32.6h7.3l18.9,22.9V32.6H134.9z"/>
<path class="st2" d="M146.3,53.7V32.6h8.8v20.8c0,7.2,3.1,10.1,8.5,10.1c5.3,0,8.5-3,8.5-10.1V32.6h8.7v21.1
	c0,11.1-6.4,17.2-17.2,17.2C152.8,70.9,146.3,64.8,146.3,53.7z"/>
<path class="st2" d="M227.1,32.6v37.6h-7.2l-19-22.9v22.9h-8.7V32.6h7.3l18.9,22.9V32.6H227.1z"/>
<path class="st2" d="M236.5,51.5c0-11.4,8.8-19.5,20.7-19.5c6.6,0,12.1,2.4,15.7,6.7l-5.6,5.2c-1.2-1.4-2.6-2.5-4.3-3.3
	c-1.7-0.8-3.5-1.2-5.3-1.1c-7.1,0-12.2,5-12.2,12.1c0,7.1,5.1,12.1,12.2,12.1c1.8,0,3.6-0.4,5.3-1.1c1.7-0.8,3.1-1.9,4.3-3.3
	l5.6,5.2c-3.6,4.4-9.1,6.7-15.7,6.7C245.3,70.9,236.5,62.8,236.5,51.5z"/>
<path class="st2" d="M316.4,32.6v37.6h-8.8V54.9h-17.3v15.4h-8.8V32.6h8.8v14.8h17.3V32.6H316.4z"/>
<path class="st2" d="M327.8,53.7V32.6h8.8v20.8c0,7.2,3.2,10.1,8.5,10.1c5.3,0,8.5-3,8.5-10.1V32.6h8.7v21.1
	c0,11.1-6.4,17.2-17.2,17.2C334.2,70.9,327.8,64.8,327.8,53.7z"/>
<path class="st2" d="M387.5,55.5l-5.1,5.3v9.5h-8.7V32.6h8.7v17.6l16.9-17.6h9.8l-15.8,16.8L410,70.3h-10.3L387.5,55.5z"/>
<path class="st2" d="M443.7,51c1.5,0,2.8-0.2,4-0.5c1.2-0.4,2.1-0.9,2.9-1.6c0.8-0.7,1.4-1.5,1.8-2.4c0.4-0.9,0.6-2,0.6-3.1
	c0-2.3-0.8-4-2.3-5.2c-1.5-1.2-3.8-1.8-6.8-1.8h-5.7V51H443.7z M461.5,71h-4.6c-1,0-1.7-0.4-2.1-1.1l-10-13.8
	c-0.3-0.4-0.6-0.7-1-0.9c-0.3-0.2-0.9-0.3-1.6-0.3h-4V71h-5.2V32.3h10.9c2.4,0,4.6,0.3,6.3,0.8c1.8,0.5,3.2,1.2,4.4,2.1
	c1.2,0.9,2,2.1,2.6,3.4c0.6,1.3,0.8,2.8,0.8,4.4c0,1.4-0.2,2.6-0.6,3.8c-0.4,1.2-1.1,2.3-1.9,3.2c-0.8,0.9-1.8,1.7-3,2.4
	c-1.2,0.7-2.5,1.2-4,1.5c0.7,0.4,1.2,0.9,1.7,1.6L461.5,71z"/>
<path class="st2" d="M490.7,66.7l0,4.3h-23.8V32.3h23.8v4.3H472v12.9h15.1v4.1H472v13.2H490.7z"/>
<path class="st2" d="M517.8,38.4c-0.2,0.3-0.3,0.5-0.5,0.6c-0.2,0.1-0.4,0.2-0.7,0.2c-0.3,0-0.7-0.2-1.1-0.5s-0.9-0.6-1.6-1
	c-0.6-0.4-1.4-0.7-2.2-1c-0.9-0.3-1.9-0.5-3.2-0.5c-1.2,0-2.2,0.2-3.1,0.5c-0.9,0.3-1.6,0.7-2.2,1.3c-0.6,0.5-1,1.2-1.4,1.9
	c-0.3,0.7-0.5,1.5-0.5,2.3c0,1.1,0.3,2,0.8,2.7c0.5,0.7,1.2,1.3,2.1,1.8c0.9,0.5,1.9,0.9,3,1.3c1.1,0.4,2.2,0.7,3.4,1.1
	c1.2,0.4,2.3,0.8,3.4,1.4c1.1,0.5,2.1,1.1,3,1.9c0.9,0.8,1.6,1.7,2.1,2.8c0.5,1.1,0.8,2.4,0.8,4c0,1.7-0.3,3.3-0.9,4.8
	c-0.6,1.5-1.4,2.8-2.5,3.9c-1.1,1.1-2.5,2-4.1,2.6c-1.6,0.6-3.4,0.9-5.5,0.9c-2.5,0-4.8-0.4-6.9-1.3c-2.1-0.9-3.8-2.2-5.3-3.7
	l1.5-2.5c0.1-0.2,0.3-0.4,0.5-0.5c0.2-0.1,0.5-0.2,0.7-0.2c0.2,0,0.5,0.1,0.8,0.3c0.3,0.2,0.6,0.4,1,0.7c0.4,0.3,0.8,0.6,1.3,0.9
	c0.5,0.3,1,0.7,1.6,0.9c0.6,0.3,1.3,0.5,2.1,0.7c0.8,0.2,1.7,0.3,2.7,0.3c1.2,0,2.3-0.2,3.3-0.5c1-0.3,1.8-0.8,2.5-1.4
	c0.7-0.6,1.2-1.4,1.6-2.2c0.4-0.9,0.5-1.8,0.5-2.9c0-1.2-0.3-2.1-0.8-2.9c-0.5-0.8-1.2-1.4-2.1-1.9c-0.9-0.5-1.9-0.9-3-1.3
	c-1.1-0.4-2.2-0.7-3.4-1.1c-1.2-0.4-2.3-0.8-3.4-1.3s-2.1-1.1-3-1.9c-0.9-0.8-1.6-1.7-2.1-2.9c-0.5-1.2-0.8-2.6-0.8-4.3
	c0-1.4,0.3-2.7,0.8-4c0.5-1.3,1.3-2.4,2.3-3.4c1-1,2.3-1.8,3.8-2.4c1.5-0.6,3.2-0.9,5.1-0.9c2.2,0,4.1,0.3,5.9,1
	c1.8,0.7,3.3,1.7,4.7,3L517.8,38.4z"/>
<path class="st2" d="M563,51.7c0,2.9-0.5,5.6-1.4,8c-0.9,2.4-2.2,4.5-3.9,6.2c-1.7,1.7-3.7,3.1-6,4.1c-2.3,1-4.9,1.4-7.8,1.4
	s-5.4-0.5-7.8-1.4c-2.3-1-4.3-2.3-6-4.1c-1.7-1.7-3-3.8-3.9-6.2c-0.9-2.4-1.4-5.1-1.4-8c0-2.9,0.5-5.6,1.4-8
	c0.9-2.4,2.2-4.5,3.9-6.3c1.7-1.8,3.7-3.1,6-4.1c2.3-1,4.9-1.5,7.8-1.5s5.4,0.5,7.8,1.5c2.4,1,4.4,2.3,6,4.1c1.7,1.7,3,3.8,3.9,6.3
	C562.6,46.1,563,48.8,563,51.7z M557.7,51.7c0-2.4-0.3-4.5-1-6.4c-0.6-1.9-1.6-3.5-2.8-4.8c-1.2-1.3-2.6-2.3-4.3-3s-3.6-1.1-5.7-1.1
	c-2.1,0-4,0.4-5.6,1.1s-3.1,1.7-4.3,3c-1.2,1.3-2.1,2.9-2.8,4.8s-1,4-1,6.4s0.3,4.5,1,6.4c0.6,1.9,1.6,3.5,2.8,4.8
	c1.2,1.3,2.7,2.3,4.3,3c1.7,0.7,3.6,1,5.6,1c2.1,0,4-0.3,5.7-1c1.7-0.7,3.1-1.7,4.3-3c1.2-1.3,2.1-2.9,2.8-4.8
	C557.3,56.2,557.7,54,557.7,51.7z"/>
<path class="st2" d="M585.5,66.8c1.6,0,3-0.3,4.3-0.8c1.3-0.5,2.3-1.3,3.2-2.3c0.9-1,1.5-2.1,2-3.5c0.5-1.3,0.7-2.8,0.7-4.5V32.3
	h5.2v23.5c0,2.2-0.4,4.3-1.1,6.2c-0.7,1.9-1.7,3.6-3.1,5c-1.3,1.4-2.9,2.5-4.8,3.3c-1.9,0.8-4.1,1.2-6.4,1.2s-4.5-0.4-6.4-1.2
	c-1.9-0.8-3.5-1.9-4.9-3.3c-1.3-1.4-2.4-3.1-3.1-5c-0.7-1.9-1.1-4-1.1-6.2V32.3h5.2v23.5c0,1.6,0.2,3.1,0.7,4.5
	c0.5,1.3,1.1,2.5,2,3.5c0.9,1,2,1.7,3.2,2.3C582.4,66.6,583.9,66.8,585.5,66.8z"/>
<path class="st2" d="M621,51c1.5,0,2.8-0.2,4-0.5c1.2-0.4,2.1-0.9,2.9-1.6c0.8-0.7,1.4-1.5,1.8-2.4c0.4-0.9,0.6-2,0.6-3.1
	c0-2.3-0.8-4-2.3-5.2c-1.5-1.2-3.8-1.8-6.8-1.8h-5.7V51H621z M638.8,71h-4.6c-1,0-1.7-0.4-2.1-1.1l-10-13.8c-0.3-0.4-0.6-0.7-1-0.9
	c-0.3-0.2-0.9-0.3-1.6-0.3h-4V71h-5.2V32.3h10.9c2.4,0,4.6,0.3,6.3,0.8c1.8,0.5,3.2,1.2,4.4,2.1c1.2,0.9,2,2.1,2.6,3.4
	c0.6,1.3,0.8,2.8,0.8,4.4c0,1.4-0.2,2.6-0.6,3.8s-1.1,2.3-1.9,3.2c-0.8,0.9-1.8,1.7-3,2.4c-1.2,0.7-2.5,1.2-4,1.5
	c0.7,0.4,1.2,0.9,1.7,1.6L638.8,71z"/>
<path class="st2" d="M670.9,63c0.3,0,0.5,0.1,0.8,0.4l2.1,2.2c-1.6,1.8-3.5,3.3-5.8,4.3c-2.2,1-5,1.5-8.2,1.5
	c-2.8,0-5.3-0.5-7.6-1.4c-2.3-1-4.2-2.3-5.8-4.1c-1.6-1.7-2.8-3.8-3.7-6.3s-1.3-5.1-1.3-8s0.5-5.6,1.4-8c0.9-2.4,2.2-4.5,3.9-6.3
	c1.7-1.7,3.7-3.1,6-4c2.3-1,4.9-1.5,7.7-1.5c2.8,0,5.2,0.4,7.3,1.3c2.1,0.9,4,2.1,5.6,3.6l-1.7,2.4c-0.1,0.2-0.3,0.3-0.4,0.5
	c-0.2,0.1-0.4,0.2-0.7,0.2c-0.3,0-0.7-0.2-1.2-0.5c-0.5-0.4-1.1-0.8-1.8-1.2c-0.8-0.4-1.7-0.8-2.8-1.2c-1.1-0.4-2.5-0.5-4.2-0.5
	c-2,0-3.8,0.4-5.5,1.1c-1.7,0.7-3.1,1.7-4.3,3c-1.2,1.3-2.1,2.9-2.8,4.8c-0.7,1.9-1,4-1,6.4c0,2.4,0.3,4.6,1,6.5
	c0.7,1.9,1.6,3.5,2.8,4.8c1.2,1.3,2.6,2.3,4.2,3c1.6,0.7,3.4,1,5.3,1c1.2,0,2.2-0.1,3.1-0.2c0.9-0.1,1.8-0.4,2.6-0.6
	c0.8-0.3,1.5-0.6,2.2-1.1c0.7-0.4,1.4-1,2-1.6C670.3,63.1,670.6,63,670.9,63z"/>
<path class="st2" d="M703.7,66.7l0,4.3h-23.8V32.3h23.8v4.3H685v12.9h15.1v4.1H685v13.2H703.7z"/>
<path class="st2" d="M730.7,38.4c-0.2,0.3-0.3,0.5-0.5,0.6c-0.2,0.1-0.4,0.2-0.7,0.2c-0.3,0-0.7-0.2-1.1-0.5s-0.9-0.6-1.6-1
	c-0.6-0.4-1.4-0.7-2.2-1c-0.9-0.3-1.9-0.5-3.2-0.5c-1.2,0-2.2,0.2-3.1,0.5c-0.9,0.3-1.6,0.7-2.2,1.3c-0.6,0.5-1,1.2-1.3,1.9
	c-0.3,0.7-0.5,1.5-0.5,2.3c0,1.1,0.3,2,0.8,2.7c0.5,0.7,1.2,1.3,2.1,1.8c0.9,0.5,1.9,0.9,3,1.3c1.1,0.4,2.2,0.7,3.4,1.1
	c1.2,0.4,2.3,0.8,3.4,1.4c1.1,0.5,2.1,1.1,3,1.9c0.9,0.8,1.6,1.7,2.1,2.8c0.5,1.1,0.8,2.4,0.8,4c0,1.7-0.3,3.3-0.9,4.8
	c-0.6,1.5-1.4,2.8-2.5,3.9c-1.1,1.1-2.5,2-4.1,2.6c-1.6,0.6-3.4,0.9-5.5,0.9c-2.5,0-4.8-0.4-6.9-1.3c-2.1-0.9-3.8-2.2-5.3-3.7
	l1.5-2.5c0.1-0.2,0.3-0.4,0.5-0.5c0.2-0.1,0.5-0.2,0.7-0.2c0.2,0,0.5,0.1,0.8,0.3c0.3,0.2,0.6,0.4,1,0.7c0.4,0.3,0.8,0.6,1.3,0.9
	c0.5,0.3,1,0.7,1.6,0.9c0.6,0.3,1.3,0.5,2.1,0.7c0.8,0.2,1.7,0.3,2.7,0.3c1.2,0,2.3-0.2,3.3-0.5c1-0.3,1.8-0.8,2.5-1.4
	c0.7-0.6,1.2-1.4,1.6-2.2c0.4-0.9,0.5-1.8,0.5-2.9c0-1.2-0.3-2.1-0.8-2.9c-0.5-0.8-1.2-1.4-2.1-1.9c-0.9-0.5-1.9-0.9-3-1.3
	c-1.1-0.4-2.2-0.7-3.4-1.1c-1.2-0.4-2.3-0.8-3.4-1.3c-1.1-0.5-2.1-1.1-3-1.9c-0.9-0.8-1.6-1.7-2.1-2.9c-0.5-1.2-0.8-2.6-0.8-4.3
	c0-1.4,0.3-2.7,0.8-4c0.5-1.3,1.3-2.4,2.3-3.4c1-1,2.3-1.8,3.8-2.4c1.5-0.6,3.2-0.9,5.1-0.9c2.2,0,4.1,0.3,5.9,1
	c1.8,0.7,3.3,1.7,4.7,3L730.7,38.4z"/>
</svg>
